<?xml version="1.0" standalone="no"?>
<!DOCTYPE svg PUBLIC "-//W3C//DTD SVG 20010904//EN"
 "http://www.w3.org/TR/2001/REC-SVG-20010904/DTD/svg10.dtd">
<svg version="1.0" xmlns="http://www.w3.org/2000/svg"
 width="476.000000pt" height="525.000000pt" viewBox="0 0 476.000000 525.000000"
 preserveAspectRatio="xMidYMid meet">
<metadata>
Created by potrace 1.16, written by Peter Selinger 2001-2019
</metadata>
<g transform="translate(0.000000,525.000000) scale(0.100000,-0.100000)"
fill="#000000" stroke="none">
<path d="M1392 4855 c-311 -83 -560 -279 -706 -557 -87 -164 -126 -325 -126
-517 0 -306 117 -581 337 -792 217 -208 465 -306 788 -312 l135 -2 0 -37 0
-38 -102 0 c-57 0 -123 -5 -148 -11 -106 -24 -180 -116 -180 -225 0 -58 -2
-63 -33 -87 -57 -43 -218 -210 -255 -265 -73 -105 -92 -138 -141 -237 -77
-157 -136 -360 -148 -507 l-6 -68 -38 0 -39 0 0 -115 c0 -63 -1 -115 -3 -115
-5 0 -107 -38 -137 -51 l-30 -14 0 -126 c0 -95 3 -129 14 -138 20 -17 43 -4
61 37 34 77 59 109 93 122 28 10 35 9 45 -4 7 -9 27 -27 46 -41 31 -23 44 -25
129 -25 l94 0 -4 -60 c-7 -97 36 -110 74 -23 22 52 79 176 83 181 10 13 38
-21 61 -74 22 -52 31 -64 49 -64 31 0 35 15 35 140 l0 108 -70 33 -69 34 -1
98 0 97 -30 0 c-28 0 -30 3 -30 36 0 45 27 243 42 309 20 92 79 260 104 297
13 21 24 40 24 42 0 8 45 73 81 116 19 23 59 61 91 85 l56 45 141 0 141 0 0
-190 0 -190 -60 0 -60 0 0 -190 0 -190 30 0 c28 0 77 -23 91 -43 4 -5 76 -8
162 -8 85 1 157 -2 160 -6 3 -4 -69 -8 -160 -7 l-166 1 -33 -29 c-19 -17 -34
-34 -34 -39 0 -5 18 -25 40 -46 29 -25 38 -39 30 -47 -5 -5 -11 -21 -11 -36
-2 -24 -2 -24 -6 -2 l-5 24 -24 -23 c-13 -12 -24 -27 -24 -33 0 -6 19 -24 42
-40 l41 -29 -22 -18 c-33 -27 -25 -39 27 -40 l47 -2 -40 -6 c-22 -4 -45 -3
-52 2 -7 5 -21 3 -34 -4 -22 -11 -21 -12 26 -55 l49 -43 -44 -41 -45 -41 35
-29 c34 -30 34 -30 9 -30 -25 0 -26 -3 -39 -95 -19 -142 -31 -135 244 -135
216 0 221 1 241 23 24 26 24 40 5 131 -10 50 -19 70 -32 74 -24 6 -23 9 10 38
l27 24 -45 41 -45 41 44 38 c39 33 43 41 31 55 -8 9 -20 13 -32 9 -16 -5 -19
-2 -14 14 4 12 0 24 -9 32 -14 12 -11 18 26 50 42 36 42 36 23 58 -10 12 -23
22 -28 22 -5 0 -15 8 -22 17 -11 16 -7 24 29 61 l42 43 -43 41 c-24 22 -42 41
-40 42 2 1 16 12 32 24 25 19 41 22 124 22 78 0 100 -4 128 -21 19 -11 34 -22
34 -24 0 -3 -19 -22 -42 -44 l-43 -39 43 -43 43 -44 -43 -38 -43 -39 43 -37
43 -38 -40 -36 c-23 -20 -41 -40 -41 -43 0 -4 19 -24 42 -45 l42 -38 -44 -40
-45 -41 27 -23 c33 -27 35 -37 9 -37 -15 0 -21 -13 -31 -73 -16 -96 -15 -115
6 -138 16 -18 32 -19 241 -19 218 0 225 1 242 22 16 19 17 27 5 82 -7 34 -13
76 -14 94 0 25 -4 32 -20 32 -27 0 -25 6 8 35 l27 24 -38 38 c-31 31 -39 35
-47 23 -14 -23 -6 -35 23 -35 14 -1 29 -4 33 -8 4 -4 -10 -7 -32 -7 -36 0 -40
3 -42 26 -1 20 10 38 48 73 55 51 60 65 30 81 -16 8 -20 8 -20 -4 0 -24 -40
-7 -41 18 0 11 -3 15 -6 9 -3 -10 -47 -13 -171 -12 -92 0 -161 3 -155 6 7 2
13 11 13 19 0 12 26 14 158 12 152 -3 157 -4 167 -25 5 -13 13 -23 18 -23 4 0
5 5 2 10 -3 6 0 10 7 10 7 0 2 9 -11 19 l-24 19 41 27 c46 30 51 45 25 66 -9
8 -14 9 -10 3 11 -19 -23 -11 -40 10 -14 15 -14 18 -2 8 24 -18 31 -2 8 17
-21 17 -21 17 21 55 44 39 47 63 10 73 -11 3 -20 11 -20 19 0 7 -8 17 -17 23
-10 5 -16 11 -13 13 48 38 68 48 96 48 l34 0 0 190 0 190 -60 0 -60 0 0 190 0
190 135 0 c129 0 137 -1 178 -27 88 -55 201 -202 250 -323 52 -130 100 -341
113 -500 l7 -80 -32 0 -31 0 0 -97 -1 -98 -69 -33 -70 -34 1 -91 c2 -120 9
-151 35 -155 17 -2 26 9 48 62 15 35 35 67 43 70 9 4 17 5 18 4 0 -2 23 -51
50 -111 51 -113 65 -133 90 -123 11 4 15 22 15 71 l0 65 91 0 c97 0 141 16
173 62 13 18 18 19 49 7 29 -10 42 -25 73 -85 40 -76 57 -92 80 -73 11 9 14
43 14 138 l0 126 -58 24 c-31 13 -69 29 -84 35 -27 11 -27 11 -30 121 l-3 110
-37 3 c-41 3 -37 -7 -53 142 -7 59 -33 161 -70 275 -79 237 -240 473 -441 644
l-55 47 -3 67 c-4 80 -35 140 -96 182 -48 34 -101 44 -232 44 l-98 1 0 34 0
33 138 7 c209 11 371 48 502 115 104 54 140 75 140 83 0 4 6 8 13 8 20 0 175
149 240 230 79 100 167 284 198 415 34 141 34 378 2 510 -54 218 -151 387
-309 542 -128 124 -287 217 -465 270 l-94 28 -850 2 -850 2 -93 -24z m261
-894 c15 -10 92 -83 171 -162 160 -161 178 -191 152 -253 -17 -41 -68 -76
-110 -76 -33 0 -62 21 -155 109 -98 92 -145 93 -232 4 -71 -73 -126 -113 -156
-113 -45 0 -94 31 -110 68 -29 69 -15 93 145 256 81 81 161 157 177 167 38 24
82 24 118 0z m1452 -1 c44 -27 303 -287 321 -322 50 -97 -58 -205 -154 -154
-15 8 -58 46 -96 85 -109 110 -146 108 -267 -10 -107 -103 -150 -113 -218 -49
-27 24 -31 35 -31 79 l0 51 144 146 c80 80 159 157 177 170 40 29 81 31 124 4z"/>
</g>
</svg>
